<mxfile host="app.diagrams.net" agent="Mozilla/5.0 (Macintosh; Intel Mac OS X 10_15_7) AppleWebKit/537.36 (KHTML, like Gecko) Chrome/132.0.0.0 Safari/537.36" version="26.0.11">
  <diagram name="Page-1" id="ezRu5I7bXNQcL3VQkQR-">
    <mxGraphModel dx="1795" dy="580" grid="1" gridSize="10" guides="1" tooltips="1" connect="1" arrows="1" fold="1" page="1" pageScale="1" pageWidth="850" pageHeight="1100" math="0" shadow="0">
      <root>
        <mxCell id="0" />
        <mxCell id="1" parent="0" />
        <mxCell id="UL839iLnpTxjVV6hxP9y-1" value="" style="rounded=0;whiteSpace=wrap;html=1;" vertex="1" parent="1">
          <mxGeometry x="170" y="400" width="130" height="190" as="geometry" />
        </mxCell>
        <mxCell id="UL839iLnpTxjVV6hxP9y-2" value="minipcserver" style="text;html=1;align=center;verticalAlign=middle;resizable=0;points=[];autosize=1;strokeColor=none;fillColor=none;" vertex="1" parent="1">
          <mxGeometry x="190" y="590" width="90" height="30" as="geometry" />
        </mxCell>
        <mxCell id="UL839iLnpTxjVV6hxP9y-3" value="" style="rounded=0;whiteSpace=wrap;html=1;" vertex="1" parent="1">
          <mxGeometry x="350" y="400" width="130" height="190" as="geometry" />
        </mxCell>
        <mxCell id="UL839iLnpTxjVV6hxP9y-4" value="backupminipc" style="text;html=1;align=center;verticalAlign=middle;resizable=0;points=[];autosize=1;strokeColor=none;fillColor=none;" vertex="1" parent="1">
          <mxGeometry x="365" y="590" width="100" height="30" as="geometry" />
        </mxCell>
        <mxCell id="UL839iLnpTxjVV6hxP9y-5" value="" style="rounded=0;whiteSpace=wrap;html=1;" vertex="1" parent="1">
          <mxGeometry x="530" y="400" width="130" height="190" as="geometry" />
        </mxCell>
        <mxCell id="UL839iLnpTxjVV6hxP9y-6" value="raspberryserver" style="text;html=1;align=center;verticalAlign=middle;resizable=0;points=[];autosize=1;strokeColor=none;fillColor=none;" vertex="1" parent="1">
          <mxGeometry x="540" y="590" width="110" height="30" as="geometry" />
        </mxCell>
        <mxCell id="UL839iLnpTxjVV6hxP9y-12" style="edgeStyle=orthogonalEdgeStyle;rounded=0;orthogonalLoop=1;jettySize=auto;html=1;" edge="1" parent="1" source="UL839iLnpTxjVV6hxP9y-7">
          <mxGeometry relative="1" as="geometry">
            <mxPoint x="235" y="340" as="targetPoint" />
          </mxGeometry>
        </mxCell>
        <mxCell id="UL839iLnpTxjVV6hxP9y-7" value="PRIMARY" style="strokeWidth=2;html=1;shape=mxgraph.flowchart.database;whiteSpace=wrap;" vertex="1" parent="1">
          <mxGeometry x="205" y="490" width="60" height="60" as="geometry" />
        </mxCell>
        <mxCell id="UL839iLnpTxjVV6hxP9y-13" style="edgeStyle=orthogonalEdgeStyle;rounded=0;orthogonalLoop=1;jettySize=auto;html=1;" edge="1" parent="1" source="UL839iLnpTxjVV6hxP9y-8">
          <mxGeometry relative="1" as="geometry">
            <mxPoint x="240" y="340" as="targetPoint" />
            <Array as="points">
              <mxPoint x="415" y="340" />
            </Array>
          </mxGeometry>
        </mxCell>
        <mxCell id="UL839iLnpTxjVV6hxP9y-8" value="" style="strokeWidth=2;html=1;shape=mxgraph.flowchart.database;whiteSpace=wrap;" vertex="1" parent="1">
          <mxGeometry x="385" y="490" width="60" height="60" as="geometry" />
        </mxCell>
        <mxCell id="UL839iLnpTxjVV6hxP9y-9" value="" style="rounded=0;whiteSpace=wrap;html=1;fillColor=light-dark(#E4E4E4,var(--ge-dark-color, #121212));" vertex="1" parent="1">
          <mxGeometry x="-20" y="400" width="130" height="190" as="geometry" />
        </mxCell>
        <mxCell id="UL839iLnpTxjVV6hxP9y-10" value="ec2" style="text;html=1;align=center;verticalAlign=middle;resizable=0;points=[];autosize=1;strokeColor=none;fillColor=light-dark(#E4E4E4,var(--ge-dark-color, #121212));" vertex="1" parent="1">
          <mxGeometry x="25" y="590" width="40" height="30" as="geometry" />
        </mxCell>
        <mxCell id="UL839iLnpTxjVV6hxP9y-14" style="edgeStyle=orthogonalEdgeStyle;rounded=0;orthogonalLoop=1;jettySize=auto;html=1;" edge="1" parent="1" source="UL839iLnpTxjVV6hxP9y-11">
          <mxGeometry relative="1" as="geometry">
            <mxPoint x="230" y="340" as="targetPoint" />
            <Array as="points">
              <mxPoint x="45" y="340" />
            </Array>
          </mxGeometry>
        </mxCell>
        <mxCell id="UL839iLnpTxjVV6hxP9y-11" value="" style="strokeWidth=2;html=1;shape=mxgraph.flowchart.database;whiteSpace=wrap;" vertex="1" parent="1">
          <mxGeometry x="15" y="490" width="60" height="60" as="geometry" />
        </mxCell>
        <mxCell id="UL839iLnpTxjVV6hxP9y-16" style="edgeStyle=orthogonalEdgeStyle;rounded=0;orthogonalLoop=1;jettySize=auto;html=1;entryX=0.5;entryY=0;entryDx=0;entryDy=0;" edge="1" parent="1" source="UL839iLnpTxjVV6hxP9y-15" target="UL839iLnpTxjVV6hxP9y-5">
          <mxGeometry relative="1" as="geometry">
            <Array as="points">
              <mxPoint x="595" y="200" />
            </Array>
          </mxGeometry>
        </mxCell>
        <mxCell id="UL839iLnpTxjVV6hxP9y-15" value="&lt;span style=&quot;box-sizing: border-box; font-family: SFMono-Regular, Menlo, Monaco, Consolas, &amp;quot;Liberation Mono&amp;quot;, &amp;quot;Courier New&amp;quot;, Courier, monospace; white-space-collapse: preserve;&quot; class=&quot;hljs-attr&quot;&gt;apiVersion:&lt;/span&gt;&lt;span style=&quot;font-family: SFMono-Regular, Menlo, Monaco, Consolas, &amp;quot;Liberation Mono&amp;quot;, &amp;quot;Courier New&amp;quot;, Courier, monospace; white-space-collapse: preserve; background-color: rgb(248, 248, 248);&quot;&gt; &lt;/span&gt;&lt;span style=&quot;box-sizing: border-box; color: rgb(221, 17, 68); font-family: SFMono-Regular, Menlo, Monaco, Consolas, &amp;quot;Liberation Mono&amp;quot;, &amp;quot;Courier New&amp;quot;, Courier, monospace; white-space-collapse: preserve;&quot; class=&quot;hljs-string&quot;&gt;postgresql.cnpg.io/v1&lt;/span&gt;&lt;span style=&quot;font-family: SFMono-Regular, Menlo, Monaco, Consolas, &amp;quot;Liberation Mono&amp;quot;, &amp;quot;Courier New&amp;quot;, Courier, monospace; white-space-collapse: preserve; background-color: rgb(248, 248, 248);&quot;&gt;&lt;br&gt;&lt;/span&gt;&lt;span style=&quot;box-sizing: border-box; font-family: SFMono-Regular, Menlo, Monaco, Consolas, &amp;quot;Liberation Mono&amp;quot;, &amp;quot;Courier New&amp;quot;, Courier, monospace; white-space-collapse: preserve;&quot; class=&quot;hljs-attr&quot;&gt;kind:&lt;/span&gt;&lt;span style=&quot;font-family: SFMono-Regular, Menlo, Monaco, Consolas, &amp;quot;Liberation Mono&amp;quot;, &amp;quot;Courier New&amp;quot;, Courier, monospace; white-space-collapse: preserve; background-color: rgb(248, 248, 248);&quot;&gt; &lt;/span&gt;&lt;span style=&quot;box-sizing: border-box; color: rgb(221, 17, 68); font-family: SFMono-Regular, Menlo, Monaco, Consolas, &amp;quot;Liberation Mono&amp;quot;, &amp;quot;Courier New&amp;quot;, Courier, monospace; white-space-collapse: preserve;&quot; class=&quot;hljs-string&quot;&gt;Cluster&lt;/span&gt;&lt;span style=&quot;font-family: SFMono-Regular, Menlo, Monaco, Consolas, &amp;quot;Liberation Mono&amp;quot;, &amp;quot;Courier New&amp;quot;, Courier, monospace; white-space-collapse: preserve; background-color: rgb(248, 248, 248);&quot;&gt;&lt;br&gt;&lt;/span&gt;&lt;span style=&quot;box-sizing: border-box; font-family: SFMono-Regular, Menlo, Monaco, Consolas, &amp;quot;Liberation Mono&amp;quot;, &amp;quot;Courier New&amp;quot;, Courier, monospace; white-space-collapse: preserve;&quot; class=&quot;hljs-attr&quot;&gt;metadata:&lt;/span&gt;&lt;span style=&quot;font-family: SFMono-Regular, Menlo, Monaco, Consolas, &amp;quot;Liberation Mono&amp;quot;, &amp;quot;Courier New&amp;quot;, Courier, monospace; white-space-collapse: preserve; background-color: rgb(248, 248, 248);&quot;&gt;&lt;br&gt;  &lt;/span&gt;&lt;span style=&quot;box-sizing: border-box; font-family: SFMono-Regular, Menlo, Monaco, Consolas, &amp;quot;Liberation Mono&amp;quot;, &amp;quot;Courier New&amp;quot;, Courier, monospace; white-space-collapse: preserve;&quot; class=&quot;hljs-attr&quot;&gt;name:&lt;/span&gt;&lt;span style=&quot;font-family: SFMono-Regular, Menlo, Monaco, Consolas, &amp;quot;Liberation Mono&amp;quot;, &amp;quot;Courier New&amp;quot;, Courier, monospace; white-space-collapse: preserve; background-color: rgb(248, 248, 248);&quot;&gt; &lt;/span&gt;&lt;span style=&quot;box-sizing: border-box; color: rgb(221, 17, 68); font-family: SFMono-Regular, Menlo, Monaco, Consolas, &amp;quot;Liberation Mono&amp;quot;, &amp;quot;Courier New&amp;quot;, Courier, monospace; white-space-collapse: preserve;&quot; class=&quot;hljs-string&quot;&gt;cluster-example&lt;/span&gt;&lt;span style=&quot;font-family: SFMono-Regular, Menlo, Monaco, Consolas, &amp;quot;Liberation Mono&amp;quot;, &amp;quot;Courier New&amp;quot;, Courier, monospace; white-space-collapse: preserve; background-color: rgb(248, 248, 248);&quot;&gt;&lt;br&gt;&lt;/span&gt;&lt;span style=&quot;box-sizing: border-box; font-family: SFMono-Regular, Menlo, Monaco, Consolas, &amp;quot;Liberation Mono&amp;quot;, &amp;quot;Courier New&amp;quot;, Courier, monospace; white-space-collapse: preserve;&quot; class=&quot;hljs-attr&quot;&gt;spec:&lt;/span&gt;&lt;span style=&quot;font-family: SFMono-Regular, Menlo, Monaco, Consolas, &amp;quot;Liberation Mono&amp;quot;, &amp;quot;Courier New&amp;quot;, Courier, monospace; white-space-collapse: preserve; background-color: rgb(248, 248, 248);&quot;&gt;&lt;br&gt;  &lt;/span&gt;&lt;span style=&quot;box-sizing: border-box; font-family: SFMono-Regular, Menlo, Monaco, Consolas, &amp;quot;Liberation Mono&amp;quot;, &amp;quot;Courier New&amp;quot;, Courier, monospace; white-space-collapse: preserve;&quot; class=&quot;hljs-attr&quot;&gt;instances:&lt;/span&gt;&lt;span style=&quot;font-family: SFMono-Regular, Menlo, Monaco, Consolas, &amp;quot;Liberation Mono&amp;quot;, &amp;quot;Courier New&amp;quot;, Courier, monospace; white-space-collapse: preserve; background-color: rgb(248, 248, 248);&quot;&gt; &lt;/span&gt;&lt;span style=&quot;box-sizing: border-box; color: teal; font-family: SFMono-Regular, Menlo, Monaco, Consolas, &amp;quot;Liberation Mono&amp;quot;, &amp;quot;Courier New&amp;quot;, Courier, monospace; white-space-collapse: preserve;&quot; class=&quot;hljs-number&quot;&gt;3&lt;/span&gt;&lt;span style=&quot;font-family: SFMono-Regular, Menlo, Monaco, Consolas, &amp;quot;Liberation Mono&amp;quot;, &amp;quot;Courier New&amp;quot;, Courier, monospace; white-space-collapse: preserve; background-color: rgb(248, 248, 248);&quot;&gt;&lt;br&gt;&lt;br&gt;  &lt;/span&gt;&lt;span style=&quot;box-sizing: border-box; color: rgb(153, 153, 136); font-style: italic; font-family: SFMono-Regular, Menlo, Monaco, Consolas, &amp;quot;Liberation Mono&amp;quot;, &amp;quot;Courier New&amp;quot;, Courier, monospace; white-space-collapse: preserve;&quot; class=&quot;hljs-comment&quot;&gt;# Example of rolling update strategy:&lt;/span&gt;&lt;span style=&quot;font-family: SFMono-Regular, Menlo, Monaco, Consolas, &amp;quot;Liberation Mono&amp;quot;, &amp;quot;Courier New&amp;quot;, Courier, monospace; white-space-collapse: preserve; background-color: rgb(248, 248, 248);&quot;&gt;&lt;br&gt;  &lt;/span&gt;&lt;span style=&quot;box-sizing: border-box; color: rgb(153, 153, 136); font-style: italic; font-family: SFMono-Regular, Menlo, Monaco, Consolas, &amp;quot;Liberation Mono&amp;quot;, &amp;quot;Courier New&amp;quot;, Courier, monospace; white-space-collapse: preserve;&quot; class=&quot;hljs-comment&quot;&gt;# - unsupervised: automated update of the primary once all&lt;/span&gt;&lt;span style=&quot;font-family: SFMono-Regular, Menlo, Monaco, Consolas, &amp;quot;Liberation Mono&amp;quot;, &amp;quot;Courier New&amp;quot;, Courier, monospace; white-space-collapse: preserve; background-color: rgb(248, 248, 248);&quot;&gt;&lt;br&gt;  &lt;/span&gt;&lt;span style=&quot;box-sizing: border-box; color: rgb(153, 153, 136); font-style: italic; font-family: SFMono-Regular, Menlo, Monaco, Consolas, &amp;quot;Liberation Mono&amp;quot;, &amp;quot;Courier New&amp;quot;, Courier, monospace; white-space-collapse: preserve;&quot; class=&quot;hljs-comment&quot;&gt;#                 replicas have been upgraded (default)&lt;/span&gt;&lt;span style=&quot;font-family: SFMono-Regular, Menlo, Monaco, Consolas, &amp;quot;Liberation Mono&amp;quot;, &amp;quot;Courier New&amp;quot;, Courier, monospace; white-space-collapse: preserve; background-color: rgb(248, 248, 248);&quot;&gt;&lt;br&gt;  &lt;/span&gt;&lt;span style=&quot;box-sizing: border-box; font-family: SFMono-Regular, Menlo, Monaco, Consolas, &amp;quot;Liberation Mono&amp;quot;, &amp;quot;Courier New&amp;quot;, Courier, monospace; white-space-collapse: preserve;&quot; class=&quot;hljs-attr&quot;&gt;primaryUpdateStrategy:&lt;/span&gt;&lt;span style=&quot;font-family: SFMono-Regular, Menlo, Monaco, Consolas, &amp;quot;Liberation Mono&amp;quot;, &amp;quot;Courier New&amp;quot;, Courier, monospace; white-space-collapse: preserve; background-color: rgb(248, 248, 248);&quot;&gt; &lt;/span&gt;&lt;span style=&quot;box-sizing: border-box; color: rgb(221, 17, 68); font-family: SFMono-Regular, Menlo, Monaco, Consolas, &amp;quot;Liberation Mono&amp;quot;, &amp;quot;Courier New&amp;quot;, Courier, monospace; white-space-collapse: preserve;&quot; class=&quot;hljs-string&quot;&gt;unsupervised&lt;/span&gt;&lt;span style=&quot;font-family: SFMono-Regular, Menlo, Monaco, Consolas, &amp;quot;Liberation Mono&amp;quot;, &amp;quot;Courier New&amp;quot;, Courier, monospace; white-space-collapse: preserve; background-color: rgb(248, 248, 248);&quot;&gt;&lt;br&gt;&lt;br&gt;  &lt;/span&gt;&lt;span style=&quot;box-sizing: border-box; color: rgb(153, 153, 136); font-style: italic; font-family: SFMono-Regular, Menlo, Monaco, Consolas, &amp;quot;Liberation Mono&amp;quot;, &amp;quot;Courier New&amp;quot;, Courier, monospace; white-space-collapse: preserve;&quot; class=&quot;hljs-comment&quot;&gt;# Require 1Gi of space&lt;/span&gt;&lt;span style=&quot;font-family: SFMono-Regular, Menlo, Monaco, Consolas, &amp;quot;Liberation Mono&amp;quot;, &amp;quot;Courier New&amp;quot;, Courier, monospace; white-space-collapse: preserve; background-color: rgb(248, 248, 248);&quot;&gt;&lt;br&gt;  &lt;/span&gt;&lt;span style=&quot;box-sizing: border-box; font-family: SFMono-Regular, Menlo, Monaco, Consolas, &amp;quot;Liberation Mono&amp;quot;, &amp;quot;Courier New&amp;quot;, Courier, monospace; white-space-collapse: preserve;&quot; class=&quot;hljs-attr&quot;&gt;storage:&lt;/span&gt;&lt;span style=&quot;font-family: SFMono-Regular, Menlo, Monaco, Consolas, &amp;quot;Liberation Mono&amp;quot;, &amp;quot;Courier New&amp;quot;, Courier, monospace; white-space-collapse: preserve; background-color: rgb(248, 248, 248);&quot;&gt;&lt;br&gt;    &lt;/span&gt;&lt;span style=&quot;box-sizing: border-box; font-family: SFMono-Regular, Menlo, Monaco, Consolas, &amp;quot;Liberation Mono&amp;quot;, &amp;quot;Courier New&amp;quot;, Courier, monospace; white-space-collapse: preserve;&quot; class=&quot;hljs-attr&quot;&gt;size:&lt;/span&gt;&lt;span style=&quot;font-family: SFMono-Regular, Menlo, Monaco, Consolas, &amp;quot;Liberation Mono&amp;quot;, &amp;quot;Courier New&amp;quot;, Courier, monospace; white-space-collapse: preserve; background-color: rgb(248, 248, 248);&quot;&gt; &lt;/span&gt;&lt;span style=&quot;box-sizing: border-box; color: rgb(221, 17, 68); font-family: SFMono-Regular, Menlo, Monaco, Consolas, &amp;quot;Liberation Mono&amp;quot;, &amp;quot;Courier New&amp;quot;, Courier, monospace; white-space-collapse: preserve;&quot; class=&quot;hljs-string&quot;&gt;1Gi&lt;/span&gt;" style="text;html=1;align=left;verticalAlign=middle;resizable=0;points=[];autosize=1;strokeColor=none;fillColor=none;" vertex="1" parent="1">
          <mxGeometry x="90" y="110" width="460" height="230" as="geometry" />
        </mxCell>
      </root>
    </mxGraphModel>
  </diagram>
</mxfile>
